<svg width="44" height="13" viewBox="0 0 44 13" fill="none" xmlns="http://www.w3.org/2000/svg">
<mask id="mask0_1366_232" style="mask-type:luminance" maskUnits="userSpaceOnUse" x="0" y="0" width="44" height="13">
<path d="M43.6213 0H0V12.459H43.6213V0Z" fill="white"/>
</mask>
<g mask="url(#mask0_1366_232)">
<path d="M0.5 6.2295C0.5 3.0652 3.065 0.5 6.23 0.5H37.392C40.556 0.5 43.121 3.0652 43.121 6.2295C43.121 9.394 40.556 11.959 37.392 11.959H6.23C3.065 11.959 0.5 9.394 0.5 6.2295Z" stroke="black" stroke-miterlimit="10" stroke-linejoin="round"/>
<path d="M8.59503 7.96601C8.53803 7.96601 8.50903 7.93701 8.50903 7.88031V5.0489C8.50903 4.9919 8.53803 4.96341 8.59503 4.96341H9.64003C9.93003 4.96341 10.196 5.02891 10.438 5.16001C10.679 5.29101 10.87 5.47091 11.011 5.69961C11.151 5.92821 11.221 6.18291 11.221 6.46351C11.221 6.74421 11.151 6.99921 11.012 7.22851C10.872 7.45791 10.682 7.63811 10.441 7.76921C10.2 7.90001 9.93503 7.96601 9.64603 7.96601H8.59503ZM9.67203 7.22851C9.81903 7.22851 9.95003 7.19651 10.067 7.13241C10.184 7.06831 10.276 6.97821 10.342 6.86201C10.408 6.74591 10.441 6.61311 10.441 6.46351C10.441 6.31681 10.408 6.18541 10.342 6.06921C10.276 5.95311 10.184 5.8627 10.066 5.7979C9.94902 5.733 9.81603 5.70061 9.67003 5.70061H9.27902V7.22851H9.67203Z" fill="black"/>
<path d="M12.845 8.03001C12.587 8.03001 12.356 7.96901 12.151 7.84821C11.946 7.72711 11.786 7.56401 11.671 7.35891C11.556 7.15371 11.499 6.9301 11.499 6.6879C11.499 6.4429 11.553 6.21741 11.662 6.01151C11.771 5.80571 11.923 5.64191 12.119 5.52011C12.314 5.39821 12.535 5.33731 12.783 5.33731C13.051 5.33731 13.283 5.39501 13.48 5.51041C13.676 5.62581 13.826 5.78541 13.93 5.98911C14.033 6.19281 14.085 6.42431 14.085 6.68361C14.085 6.74061 14.082 6.79691 14.076 6.85241C14.07 6.90511 14.04 6.93151 13.986 6.93151H12.245C12.292 7.07401 12.372 7.18511 12.486 7.26491C12.6 7.34461 12.73 7.38451 12.875 7.38451C12.968 7.38451 13.051 7.37131 13.126 7.34501C13.201 7.31861 13.274 7.28051 13.345 7.23071C13.364 7.21641 13.382 7.2093 13.401 7.2093C13.424 7.2093 13.444 7.22211 13.463 7.24781L13.726 7.6217C13.738 7.6402 13.745 7.65811 13.745 7.67511C13.745 7.69941 13.733 7.72071 13.711 7.73931C13.592 7.83191 13.46 7.90301 13.314 7.95401C13.168 8.00501 13.012 8.03001 12.845 8.03001ZM13.367 6.39731C13.327 6.25621 13.258 6.14801 13.161 6.07241C13.065 5.99691 12.946 5.95921 12.807 5.95921C12.67 5.95921 12.551 5.99771 12.451 6.07461C12.35 6.15151 12.28 6.25911 12.238 6.39731H13.367Z" fill="black"/>
<path d="M15.4011 8.03001C15.1991 8.03001 15.0121 7.99601 14.8421 7.92801C14.6721 7.86071 14.5131 7.76131 14.3651 7.63031C14.3421 7.61181 14.3301 7.59111 14.3301 7.56831C14.3301 7.54981 14.3381 7.5305 14.3541 7.5106L14.6421 7.14951C14.6621 7.12521 14.6831 7.11311 14.7041 7.11311C14.7201 7.11311 14.7391 7.121 14.7621 7.1366C14.8661 7.215 14.9691 7.27551 15.0711 7.31831C15.1731 7.36101 15.2761 7.38241 15.3801 7.38241C15.4511 7.38241 15.5081 7.36851 15.5511 7.34071C15.5931 7.31291 15.6151 7.27341 15.6151 7.22211C15.6151 7.18791 15.6021 7.15661 15.5771 7.12811C15.5521 7.09961 15.5091 7.0708 15.4481 7.0415C15.3871 7.0123 15.3001 6.97851 15.1871 6.94001C14.9721 6.86741 14.7951 6.76841 14.6551 6.64301C14.5161 6.51761 14.4461 6.34531 14.4461 6.12591C14.4461 5.98631 14.4801 5.85661 14.5491 5.73701C14.6181 5.61731 14.7241 5.52081 14.8661 5.44741C15.0071 5.37401 15.1821 5.33731 15.3881 5.33731C15.5311 5.33731 15.6771 5.36551 15.8271 5.42181C15.9781 5.47801 16.1101 5.56171 16.2261 5.67281C16.2461 5.69281 16.2561 5.7127 16.2561 5.7327C16.2561 5.7498 16.2461 5.76971 16.2261 5.79251L15.8881 6.14081C15.8701 6.16081 15.8501 6.17071 15.8281 6.17071C15.8101 6.17071 15.7901 6.16221 15.7681 6.14511C15.7101 6.09811 15.6461 6.05931 15.5751 6.02861C15.5051 5.99801 15.4341 5.9827 15.3651 5.9827C15.2921 5.9827 15.2371 5.99621 15.1991 6.02331C15.1611 6.05041 15.1421 6.08741 15.1421 6.13441C15.1421 6.16721 15.1561 6.19671 15.1841 6.22311C15.2121 6.24951 15.2561 6.27581 15.3181 6.30221C15.3791 6.32851 15.4641 6.35951 15.5741 6.39511C15.8091 6.47061 15.9911 6.57181 16.1191 6.69861C16.2471 6.82541 16.3111 6.99701 16.3111 7.21361C16.3111 7.35461 16.2751 7.48751 16.2031 7.61211C16.1311 7.73681 16.0271 7.83761 15.8891 7.91401C15.7521 7.99101 15.5891 8.03001 15.4011 8.03001Z" fill="black"/>
<path d="M17.899 8.03001C17.645 8.03001 17.4171 7.97 17.2141 7.8493C17.0111 7.7289 16.8521 7.56621 16.7381 7.36101C16.6231 7.15591 16.566 6.9315 16.566 6.6879C16.566 6.4414 16.623 6.21531 16.737 6.00941C16.85 5.80361 17.009 5.6401 17.213 5.519C17.417 5.3979 17.647 5.33731 17.903 5.33731C18.071 5.33731 18.229 5.36231 18.377 5.41211C18.524 5.46201 18.656 5.53251 18.773 5.62371C18.797 5.64361 18.8091 5.66501 18.8091 5.68781C18.8091 5.70491 18.803 5.72341 18.79 5.74341L18.519 6.1301C18.5 6.1572 18.479 6.17071 18.455 6.17071C18.439 6.17071 18.42 6.16361 18.399 6.14941C18.326 6.09951 18.254 6.06181 18.181 6.03611C18.108 6.01051 18.025 5.99771 17.931 5.99771C17.816 5.99771 17.709 6.02761 17.611 6.08741C17.512 6.14721 17.434 6.22951 17.375 6.33421C17.317 6.43891 17.288 6.5568 17.288 6.6879C17.288 6.8161 17.317 6.93221 17.377 7.03621C17.436 7.14021 17.515 7.22181 17.614 7.28091C17.713 7.34001 17.819 7.36961 17.933 7.36961C18.026 7.36961 18.1091 7.35711 18.1821 7.33221C18.2561 7.30721 18.328 7.26981 18.399 7.22001C18.42 7.20571 18.439 7.19861 18.455 7.19861C18.479 7.19861 18.5 7.2121 18.519 7.2392L18.79 7.62601C18.804 7.64591 18.8111 7.66521 18.8111 7.68371C18.8111 7.70221 18.803 7.71931 18.786 7.73501C18.668 7.82901 18.534 7.90201 18.384 7.95301C18.235 8.00401 18.073 8.03001 17.899 8.03001Z" fill="black"/>
<path d="M20.63 5.33731C20.805 5.33731 20.978 5.38791 21.149 5.48911C21.179 5.50761 21.194 5.53041 21.194 5.55741C21.194 5.57311 21.19 5.58951 21.181 5.60661L20.936 6.06821C20.918 6.09951 20.896 6.1152 20.869 6.1152C20.852 6.1152 20.836 6.1102 20.82 6.1002C20.718 6.0432 20.619 6.01481 20.525 6.01481C20.436 6.01481 20.35 6.04041 20.268 6.09171C20.186 6.14301 20.119 6.21881 20.068 6.31931C20.017 6.41971 19.991 6.54041 19.991 6.68151V7.88031C19.991 7.93701 19.963 7.96601 19.906 7.96601H19.35C19.293 7.96601 19.265 7.93701 19.265 7.88031V5.46561C19.265 5.40861 19.293 5.3801 19.35 5.3801H19.775C19.822 5.3801 19.855 5.4022 19.874 5.4463L19.978 5.6963C20.045 5.5852 20.135 5.49761 20.247 5.43351C20.36 5.36941 20.488 5.33731 20.63 5.33731Z" fill="black"/>
<path d="M21.622 5.1023C21.565 5.1023 21.536 5.0738 21.536 5.0168V4.5146C21.536 4.4576 21.565 4.4292 21.622 4.4292H22.188C22.245 4.4292 22.273 4.4576 22.273 4.5146V5.0168C22.273 5.0738 22.245 5.1023 22.188 5.1023H21.622ZM22.267 7.8803C22.267 7.937 22.238 7.966 22.181 7.966H21.626C21.569 7.966 21.54 7.937 21.54 7.8803V5.4656C21.54 5.4086 21.569 5.3801 21.626 5.3801H22.181C22.238 5.3801 22.267 5.4086 22.267 5.4656V7.8803Z" fill="black"/>
<path d="M24.2051 5.3373C24.4471 5.3373 24.6711 5.39719 24.8761 5.51679C25.0811 5.63649 25.2441 5.79859 25.3641 6.00299C25.4851 6.20739 25.5451 6.43149 25.5451 6.67509C25.5451 6.92009 25.4851 7.14549 25.3651 7.35139C25.2461 7.55729 25.0831 7.72039 24.8781 7.84079C24.6731 7.96099 24.4491 8.021 24.2051 8.021C23.9361 8.021 23.7121 7.93799 23.5341 7.77129L23.4811 7.89999C23.4621 7.94399 23.4291 7.966 23.3821 7.966H22.9571C22.9001 7.966 22.8721 7.93699 22.8721 7.88029V4.70699C22.8721 4.64999 22.9001 4.62149 22.9571 4.62149H23.5131C23.5701 4.62149 23.5981 4.64999 23.5981 4.70699V5.53179C23.7651 5.40219 23.9671 5.3373 24.2051 5.3373ZM24.1921 7.32679C24.3121 7.32679 24.4191 7.29939 24.5141 7.24459C24.6091 7.18969 24.6831 7.11379 24.7371 7.01699C24.7911 6.92009 24.8181 6.80969 24.8181 6.68569C24.8181 6.56179 24.7911 6.45 24.7361 6.3503C24.6811 6.2505 24.6061 6.17249 24.5101 6.11629C24.4131 6.05999 24.3061 6.03179 24.1881 6.03179C24.0701 6.03179 23.9621 6.06029 23.8651 6.11729C23.7681 6.17429 23.6921 6.2523 23.6371 6.3513C23.5811 6.4503 23.5531 6.56179 23.5531 6.68569C23.5531 6.80829 23.5811 6.91829 23.6381 7.01589C23.6941 7.11349 23.7711 7.18969 23.8691 7.24459C23.9661 7.29939 24.0741 7.32679 24.1921 7.32679Z" fill="black"/>
<path d="M27.148 8.03001C26.89 8.03001 26.658 7.96901 26.453 7.84821C26.248 7.72711 26.088 7.56401 25.973 7.35891C25.859 7.15371 25.801 6.9301 25.801 6.6879C25.801 6.4429 25.856 6.21741 25.965 6.01151C26.074 5.80571 26.226 5.64191 26.421 5.52011C26.616 5.39821 26.838 5.33731 27.086 5.33731C27.353 5.33731 27.586 5.39501 27.782 5.51041C27.979 5.62581 28.129 5.78541 28.232 5.98911C28.335 6.19281 28.387 6.42431 28.387 6.68361C28.387 6.74061 28.384 6.79691 28.379 6.85241C28.373 6.90511 28.343 6.93151 28.289 6.93151H26.547C26.594 7.07401 26.675 7.18511 26.789 7.26491C26.903 7.34461 27.032 7.38451 27.178 7.38451C27.27 7.38451 27.354 7.37131 27.429 7.34501C27.503 7.31861 27.576 7.28051 27.648 7.23071C27.666 7.21641 27.685 7.2093 27.703 7.2093C27.726 7.2093 27.747 7.22211 27.765 7.24781L28.028 7.6217C28.041 7.6402 28.047 7.65811 28.047 7.67511C28.047 7.69941 28.036 7.72071 28.013 7.73931C27.895 7.83191 27.763 7.90301 27.617 7.95401C27.471 8.00501 27.314 8.03001 27.148 8.03001ZM27.669 6.39731C27.629 6.25621 27.561 6.14801 27.464 6.07241C27.367 5.99691 27.249 5.95921 27.109 5.95921C26.972 5.95921 26.854 5.99771 26.753 6.07461C26.653 6.15151 26.582 6.25911 26.541 6.39731H27.669Z" fill="black"/>
<path d="M29.4561 7.88461C29.4481 7.93901 29.4181 7.96601 29.3661 7.96601H28.7611C28.7331 7.96601 28.7111 7.95801 28.6971 7.94201C28.6831 7.92701 28.6771 7.90501 28.6801 7.87601L29.0451 5.0424C29.0481 5.0168 29.0581 4.99721 29.0741 4.98371C29.0901 4.97011 29.1111 4.96341 29.1371 4.96341H29.8441C29.8941 4.96341 29.9261 4.98761 29.9381 5.03601L30.4561 6.90161L30.9711 5.03601C30.9831 4.98761 31.0151 4.96341 31.0651 4.96341H31.7741C31.8001 4.96341 31.8211 4.97011 31.8371 4.98371C31.8541 4.99721 31.8631 5.0168 31.8661 5.0424L32.2341 7.8782C32.2361 7.907 32.2311 7.92901 32.2161 7.94401C32.2021 7.96001 32.1811 7.96801 32.1521 7.96801H31.5451C31.4931 7.96801 31.4631 7.94101 31.4561 7.88671L31.2761 6.19851L30.8151 7.89301C30.8021 7.94201 30.7701 7.96601 30.7211 7.96601H30.1991C30.1491 7.96601 30.1181 7.94201 30.1051 7.89301L29.6441 6.19851L29.4561 7.88461Z" fill="black"/>
<path d="M33.873 8.03001C33.615 8.03001 33.383 7.96901 33.178 7.84821C32.973 7.72711 32.813 7.56401 32.698 7.35891C32.584 7.15371 32.526 6.9301 32.526 6.6879C32.526 6.4429 32.581 6.21741 32.69 6.01151C32.799 5.80571 32.951 5.64191 33.146 5.52011C33.341 5.39821 33.563 5.33731 33.811 5.33731C34.078 5.33731 34.311 5.39501 34.507 5.51041C34.704 5.62581 34.854 5.78541 34.957 5.98911C35.06 6.19281 35.112 6.42431 35.112 6.68361C35.112 6.74061 35.109 6.79691 35.103 6.85241C35.098 6.90511 35.068 6.93151 35.014 6.93151H33.272C33.319 7.07401 33.4 7.18511 33.514 7.26491C33.628 7.34461 33.757 7.38451 33.902 7.38451C33.995 7.38451 34.079 7.37131 34.154 7.34501C34.228 7.31861 34.301 7.28051 34.373 7.23071C34.391 7.21641 34.41 7.2093 34.428 7.2093C34.451 7.2093 34.472 7.22211 34.49 7.24781L34.753 7.6217C34.766 7.6402 34.772 7.65811 34.772 7.67511C34.772 7.69941 34.761 7.72071 34.738 7.73931C34.62 7.83191 34.488 7.90301 34.342 7.95401C34.196 8.00501 34.039 8.03001 33.873 8.03001ZM34.394 6.39731C34.354 6.25621 34.286 6.14801 34.189 6.07241C34.092 5.99691 33.974 5.95921 33.834 5.95921C33.697 5.95921 33.579 5.99771 33.478 6.07461C33.378 6.15151 33.307 6.25911 33.266 6.39731H34.394Z" fill="black"/>
</g>
</svg>
