<svg width="44" height="13" viewBox="0 0 44 13" fill="none" xmlns="http://www.w3.org/2000/svg">
<g clip-path="url(#clip0_1366_249)">
<mask id="mask0_1366_249" style="mask-type:luminance" maskUnits="userSpaceOnUse" x="0" y="0" width="44" height="13">
<path d="M43.6213 0H0V12.459H43.6213V0Z" fill="white"/>
</mask>
<g mask="url(#mask0_1366_249)">
<path d="M0.5 6.23C0.5 3.065 3.06601 0.5 6.23001 0.5H37.392C40.556 0.5 43.122 3.065 43.122 6.23C43.122 9.394 40.556 11.959 37.392 11.959H6.23001C3.06601 11.959 0.5 9.394 0.5 6.23Z" stroke="white" stroke-miterlimit="10" stroke-linejoin="round"/>
<path d="M8.595 7.96599C8.538 7.96599 8.51001 7.93699 8.51001 7.87999V5.049C8.51001 4.992 8.538 4.96399 8.595 4.96399H9.64C9.931 4.96399 10.197 5.02899 10.438 5.15999C10.68 5.29099 10.871 5.471 11.011 5.7C11.151 5.928 11.221 6.18299 11.221 6.46399C11.221 6.74399 11.152 6.99899 11.012 7.22899C10.872 7.45799 10.682 7.638 10.441 7.769C10.201 7.9 9.936 7.96599 9.647 7.96599H8.595ZM9.672 7.22899C9.819 7.22899 9.95101 7.197 10.068 7.133C10.184 7.068 10.276 6.978 10.342 6.862C10.408 6.746 10.441 6.61299 10.441 6.46399C10.441 6.31699 10.408 6.186 10.342 6.069C10.276 5.953 10.184 5.86299 10.066 5.79799C9.94901 5.73299 9.817 5.70099 9.67 5.70099H9.27901V7.22899H9.672Z" fill="white"/>
<path d="M12.846 8.03001C12.588 8.03001 12.356 7.97001 12.151 7.84801C11.946 7.72701 11.786 7.56401 11.671 7.35901C11.557 7.15401 11.499 6.93 11.499 6.688C11.499 6.443 11.554 6.21801 11.663 6.01201C11.772 5.80601 11.924 5.642 12.119 5.52C12.314 5.398 12.536 5.33801 12.784 5.33801C13.051 5.33801 13.284 5.39502 13.48 5.51102C13.677 5.62602 13.827 5.78601 13.93 5.98901C14.033 6.19301 14.085 6.42501 14.085 6.68401C14.085 6.74101 14.082 6.79701 14.076 6.85301C14.071 6.90501 14.041 6.93201 13.987 6.93201H12.245C12.292 7.07401 12.373 7.18501 12.487 7.26501C12.601 7.34501 12.73 7.38501 12.875 7.38501C12.968 7.38501 13.052 7.37202 13.127 7.34502C13.201 7.31902 13.274 7.281 13.346 7.231C13.364 7.217 13.383 7.20901 13.401 7.20901C13.424 7.20901 13.445 7.22202 13.463 7.24802L13.726 7.62201C13.739 7.64001 13.745 7.658 13.745 7.675C13.745 7.7 13.734 7.72101 13.711 7.73901C13.593 7.83201 13.461 7.90401 13.315 7.95401C13.169 8.00501 13.012 8.03001 12.846 8.03001ZM13.367 6.397C13.327 6.256 13.259 6.14801 13.162 6.07301C13.065 5.99701 12.947 5.95901 12.807 5.95901C12.67 5.95901 12.552 5.99801 12.451 6.07501C12.351 6.15201 12.28 6.259 12.239 6.397H13.367Z" fill="white"/>
<path d="M15.401 8.03001C15.199 8.03001 15.0131 7.99602 14.8421 7.92902C14.6721 7.86102 14.5131 7.762 14.3651 7.63C14.3421 7.612 14.3311 7.59101 14.3311 7.56801C14.3311 7.55001 14.339 7.53102 14.354 7.51102L14.6431 7.15001C14.6631 7.12501 14.683 7.11301 14.705 7.11301C14.72 7.11301 14.7401 7.12101 14.7621 7.13701C14.8661 7.21501 14.969 7.27601 15.071 7.31801C15.173 7.36101 15.2761 7.38301 15.3801 7.38301C15.4511 7.38301 15.5081 7.369 15.5511 7.341C15.5941 7.313 15.6151 7.27402 15.6151 7.22202C15.6151 7.18802 15.603 7.15701 15.578 7.12801C15.553 7.10001 15.51 7.07101 15.448 7.04201C15.387 7.01301 15.3 6.979 15.188 6.94C14.972 6.868 14.7951 6.76901 14.6561 6.64301C14.5161 6.51801 14.446 6.34501 14.446 6.12601C14.446 5.98601 14.481 5.85701 14.55 5.73701C14.619 5.61701 14.724 5.52101 14.866 5.44801C15.008 5.37401 15.182 5.33801 15.388 5.33801C15.531 5.33801 15.677 5.36601 15.828 5.42201C15.978 5.47801 16.111 5.562 16.226 5.673C16.246 5.693 16.256 5.71302 16.256 5.73302C16.256 5.75002 16.246 5.77001 16.226 5.79301L15.8891 6.14101C15.8701 6.16101 15.8501 6.17101 15.8291 6.17101C15.8101 6.17101 15.79 6.162 15.769 6.145C15.71 6.098 15.646 6.05901 15.575 6.02901C15.505 5.99801 15.4351 5.98302 15.3651 5.98302C15.2921 5.98302 15.2371 5.99601 15.1991 6.02301C15.1621 6.05101 15.1431 6.08801 15.1431 6.13501C15.1431 6.16701 15.1571 6.19701 15.1841 6.22301C15.2121 6.25001 15.2571 6.27602 15.3181 6.30202C15.3791 6.32902 15.4651 6.36 15.5741 6.395C15.8091 6.471 15.991 6.57201 16.119 6.69901C16.248 6.82601 16.312 6.997 16.312 7.214C16.312 7.355 16.2761 7.48801 16.2041 7.61201C16.1321 7.73701 16.027 7.83801 15.89 7.91501C15.752 7.99201 15.589 8.03001 15.401 8.03001Z" fill="white"/>
<path d="M17.899 8.03001C17.646 8.03001 17.417 7.97001 17.214 7.84901C17.011 7.72901 16.853 7.56601 16.738 7.36101C16.623 7.15601 16.566 6.932 16.566 6.688C16.566 6.442 16.623 6.21501 16.737 6.01001C16.851 5.80401 17.01 5.64001 17.213 5.51901C17.417 5.39801 17.647 5.33801 17.904 5.33801C18.072 5.33801 18.23 5.362 18.377 5.412C18.524 5.462 18.657 5.53301 18.773 5.62401C18.798 5.64401 18.81 5.665 18.81 5.688C18.81 5.705 18.803 5.724 18.79 5.744L18.519 6.13C18.501 6.157 18.479 6.17101 18.455 6.17101C18.439 6.17101 18.421 6.16401 18.399 6.15001C18.327 6.10001 18.254 6.06201 18.181 6.03601C18.109 6.01101 18.025 5.99802 17.931 5.99802C17.816 5.99802 17.709 6.02801 17.611 6.08801C17.513 6.14701 17.434 6.23001 17.376 6.33401C17.317 6.43901 17.288 6.557 17.288 6.688C17.288 6.816 17.318 6.93201 17.377 7.03601C17.436 7.14001 17.515 7.22201 17.614 7.28101C17.713 7.34001 17.82 7.37001 17.934 7.37001C18.026 7.37001 18.109 7.35702 18.183 7.33202C18.256 7.30702 18.328 7.27002 18.399 7.22002C18.421 7.20602 18.439 7.19901 18.455 7.19901C18.479 7.19901 18.501 7.21201 18.519 7.23901L18.79 7.62601C18.805 7.64601 18.812 7.66501 18.812 7.68401C18.812 7.70201 18.803 7.71902 18.786 7.73502C18.668 7.82902 18.534 7.902 18.384 7.953C18.235 8.004 18.073 8.03001 17.899 8.03001Z" fill="white"/>
<path d="M20.63 5.33801C20.806 5.33801 20.979 5.38801 21.15 5.48901C21.18 5.50801 21.195 5.53101 21.195 5.55801C21.195 5.57301 21.19 5.59001 21.182 5.60701L20.936 6.06801C20.919 6.10001 20.897 6.11501 20.87 6.11501C20.853 6.11501 20.836 6.11001 20.821 6.10001C20.718 6.04301 20.62 6.01501 20.526 6.01501C20.436 6.01501 20.35 6.04101 20.268 6.09201C20.186 6.14301 20.12 6.21902 20.068 6.31902C20.017 6.42002 19.991 6.54101 19.991 6.68201V7.88C19.991 7.937 19.963 7.966 19.906 7.966H19.35C19.293 7.966 19.265 7.937 19.265 7.88V5.466C19.265 5.409 19.293 5.38 19.35 5.38H19.776C19.823 5.38 19.855 5.40201 19.874 5.44701L19.979 5.69701C20.046 5.58501 20.135 5.49801 20.248 5.43401C20.36 5.37001 20.488 5.33801 20.63 5.33801Z" fill="white"/>
<path d="M21.622 5.10201C21.565 5.10201 21.536 5.07401 21.536 5.01701V4.51501C21.536 4.45801 21.565 4.42902 21.622 4.42902H22.188C22.245 4.42902 22.274 4.45801 22.274 4.51501V5.01701C22.274 5.07401 22.245 5.10201 22.188 5.10201H21.622ZM22.267 7.88C22.267 7.937 22.239 7.966 22.182 7.966H21.626C21.569 7.966 21.541 7.937 21.541 7.88V5.466C21.541 5.409 21.569 5.38 21.626 5.38H22.182C22.239 5.38 22.267 5.409 22.267 5.466V7.88Z" fill="white"/>
<path d="M24.2051 5.33801C24.4481 5.33801 24.6711 5.39701 24.8761 5.51701C25.0821 5.63701 25.2441 5.79901 25.3651 6.00301C25.4851 6.20801 25.5451 6.432 25.5451 6.675C25.5451 6.92 25.4851 7.14601 25.3661 7.35201C25.2461 7.55701 25.0841 7.721 24.8791 7.841C24.6731 7.961 24.4491 8.022 24.2051 8.022C23.9361 8.022 23.7131 7.93801 23.5341 7.77101L23.4811 7.90001C23.4631 7.94401 23.4301 7.966 23.3831 7.966H22.9571C22.9011 7.966 22.8721 7.937 22.8721 7.88V4.70702C22.8721 4.65002 22.9011 4.62201 22.9571 4.62201H23.5131C23.5701 4.62201 23.5991 4.65002 23.5991 4.70702V5.53201C23.7651 5.40201 23.9681 5.33801 24.2051 5.33801ZM24.1931 7.32701C24.3121 7.32701 24.4201 7.30001 24.5141 7.24501C24.6091 7.19001 24.6831 7.11401 24.7381 7.01701C24.7921 6.92001 24.8191 6.81 24.8191 6.686C24.8191 6.562 24.7911 6.45001 24.7361 6.35001C24.6821 6.25101 24.6061 6.17301 24.5101 6.11601C24.4141 6.06001 24.3071 6.03201 24.1881 6.03201C24.0701 6.03201 23.9631 6.06101 23.8661 6.11801C23.7691 6.17401 23.6931 6.25201 23.6371 6.35201C23.5811 6.45101 23.5541 6.562 23.5541 6.686C23.5541 6.808 23.5821 6.91901 23.6381 7.01601C23.6941 7.11401 23.7711 7.19001 23.8691 7.24501C23.9661 7.30001 24.0741 7.32701 24.1931 7.32701Z" fill="white"/>
<path d="M27.148 8.03001C26.89 8.03001 26.659 7.97001 26.454 7.84801C26.248 7.72701 26.088 7.56401 25.974 7.35901C25.859 7.15401 25.802 6.93 25.802 6.688C25.802 6.443 25.856 6.21801 25.965 6.01201C26.074 5.80601 26.226 5.642 26.421 5.52C26.617 5.398 26.838 5.33801 27.086 5.33801C27.354 5.33801 27.586 5.39502 27.783 5.51102C27.979 5.62602 28.129 5.78601 28.232 5.98901C28.336 6.19301 28.387 6.42501 28.387 6.68401C28.387 6.74101 28.385 6.79701 28.379 6.85301C28.373 6.90501 28.343 6.93201 28.289 6.93201H26.548C26.595 7.07401 26.675 7.18501 26.789 7.26501C26.903 7.34501 27.033 7.38501 27.178 7.38501C27.271 7.38501 27.354 7.37202 27.429 7.34502C27.504 7.31902 27.577 7.281 27.648 7.231C27.667 7.217 27.685 7.20901 27.704 7.20901C27.726 7.20901 27.747 7.22202 27.766 7.24802L28.028 7.62201C28.041 7.64001 28.048 7.658 28.048 7.675C28.048 7.7 28.036 7.72101 28.013 7.73901C27.895 7.83201 27.763 7.90401 27.617 7.95401C27.471 8.00501 27.315 8.03001 27.148 8.03001ZM27.669 6.397C27.63 6.256 27.561 6.14801 27.464 6.07301C27.367 5.99701 27.249 5.95901 27.11 5.95901C26.973 5.95901 26.854 5.99801 26.754 6.07501C26.653 6.15201 26.582 6.259 26.541 6.397H27.669Z" fill="white"/>
<path d="M29.456 7.88499C29.449 7.93899 29.4189 7.96599 29.3659 7.96599H28.7609C28.7329 7.96599 28.712 7.958 28.697 7.942C28.683 7.927 28.677 7.90499 28.68 7.87599L29.046 5.043C29.048 5.017 29.058 4.99699 29.074 4.98399C29.091 4.96999 29.112 4.96399 29.137 4.96399H29.8449C29.8949 4.96399 29.926 4.988 29.939 5.036L30.456 6.90199L30.971 5.036C30.984 4.988 31.0149 4.96399 31.0649 4.96399H31.7739C31.7999 4.96399 31.821 4.96999 31.837 4.98399C31.854 4.99699 31.8629 5.017 31.8659 5.043L32.234 7.87799C32.237 7.90699 32.231 7.92899 32.217 7.94499C32.203 7.95999 32.1809 7.96799 32.1529 7.96799H31.546C31.493 7.96799 31.463 7.94099 31.456 7.88699L31.277 6.19899L30.8149 7.89299C30.8019 7.94199 30.771 7.96599 30.721 7.96599H30.1999C30.1499 7.96599 30.1179 7.94199 30.1059 7.89299L29.6439 6.19899L29.456 7.88499Z" fill="white"/>
<path d="M33.873 8.03001C33.615 8.03001 33.384 7.97001 33.178 7.84801C32.973 7.72701 32.813 7.56401 32.699 7.35901C32.584 7.15401 32.527 6.93 32.527 6.688C32.527 6.443 32.581 6.21801 32.69 6.01201C32.799 5.80601 32.951 5.642 33.146 5.52C33.342 5.398 33.563 5.33801 33.811 5.33801C34.079 5.33801 34.311 5.39502 34.508 5.51102C34.704 5.62602 34.854 5.78601 34.957 5.98901C35.061 6.19301 35.112 6.42501 35.112 6.68401C35.112 6.74101 35.109 6.79701 35.104 6.85301C35.098 6.90501 35.068 6.93201 35.014 6.93201H33.272C33.319 7.07401 33.4 7.18501 33.514 7.26501C33.628 7.34501 33.758 7.38501 33.903 7.38501C33.995 7.38501 34.079 7.37202 34.154 7.34502C34.229 7.31902 34.302 7.281 34.373 7.231C34.391 7.217 34.41 7.20901 34.429 7.20901C34.451 7.20901 34.472 7.22202 34.49 7.24802L34.753 7.62201C34.766 7.64001 34.773 7.658 34.773 7.675C34.773 7.7 34.761 7.72101 34.738 7.73901C34.62 7.83201 34.488 7.90401 34.342 7.95401C34.196 8.00501 34.04 8.03001 33.873 8.03001ZM34.394 6.397C34.354 6.256 34.286 6.14801 34.189 6.07301C34.092 5.99701 33.974 5.95901 33.834 5.95901C33.698 5.95901 33.579 5.99801 33.479 6.07501C33.378 6.15201 33.307 6.259 33.266 6.397H34.394Z" fill="white"/>
</g>
</g>
<defs>
<clipPath id="clip0_1366_249">
<rect width="43.6213" height="12.459" fill="white"/>
</clipPath>
</defs>
</svg>
