<svg width="44" height="13" viewBox="0 0 44 13" fill="none" xmlns="http://www.w3.org/2000/svg">
<g clip-path="url(#clip0_1366_267)">
<mask id="mask0_1366_267" style="mask-type:luminance" maskUnits="userSpaceOnUse" x="0" y="0" width="44" height="13">
<path d="M43.6213 0H0V12.459H43.6213V0Z" fill="white"/>
</mask>
<g mask="url(#mask0_1366_267)">
<path d="M0.5 6.23001C0.5 3.06501 3.06501 0.5 6.23001 0.5H37.392C40.556 0.5 43.122 3.06501 43.122 6.23001C43.122 9.39401 40.556 11.959 37.392 11.959H6.23001C3.06501 11.959 0.5 9.39401 0.5 6.23001Z" fill="url(#paint0_linear_1366_267)" stroke="white" stroke-miterlimit="10" stroke-linejoin="round"/>
<path d="M8.595 7.96602C8.538 7.96602 8.51001 7.93803 8.51001 7.88103V5.04903C8.51001 4.99203 8.538 4.96402 8.595 4.96402H9.64001C9.93101 4.96402 10.197 5.02902 10.438 5.16002C10.68 5.29102 10.871 5.47103 11.011 5.70003C11.151 5.92803 11.221 6.18302 11.221 6.46402C11.221 6.74402 11.152 6.99902 11.012 7.22902C10.872 7.45802 10.682 7.63803 10.441 7.76903C10.201 7.90103 9.936 7.96602 9.646 7.96602H8.595ZM9.672 7.22902C9.819 7.22902 9.95099 7.19703 10.067 7.13303C10.184 7.06903 10.276 6.97803 10.342 6.86203C10.408 6.74603 10.441 6.61302 10.441 6.46402C10.441 6.31702 10.408 6.18602 10.342 6.07002C10.276 5.95302 10.184 5.86302 10.066 5.79802C9.94901 5.73302 9.81701 5.70102 9.67001 5.70102H9.27899V7.22902H9.672Z" fill="white"/>
<path d="M12.845 8.03001C12.588 8.03001 12.356 7.97001 12.151 7.84901C11.946 7.72701 11.786 7.56401 11.671 7.35901C11.557 7.15401 11.499 6.93 11.499 6.688C11.499 6.443 11.554 6.21801 11.663 6.01201C11.772 5.80601 11.924 5.642 12.119 5.52C12.314 5.399 12.536 5.33801 12.783 5.33801C13.051 5.33801 13.283 5.395 13.48 5.511C13.677 5.626 13.827 5.78601 13.93 5.98901C14.033 6.19301 14.085 6.42501 14.085 6.68401C14.085 6.74101 14.082 6.79701 14.076 6.85301C14.071 6.90501 14.041 6.93201 13.987 6.93201H12.245C12.292 7.07401 12.372 7.18501 12.486 7.26501C12.6 7.34501 12.73 7.38501 12.875 7.38501C12.968 7.38501 13.052 7.372 13.126 7.345C13.201 7.319 13.274 7.281 13.345 7.231C13.364 7.217 13.383 7.21001 13.401 7.21001C13.424 7.21001 13.444 7.222 13.463 7.248L13.726 7.62201C13.739 7.64101 13.745 7.658 13.745 7.675C13.745 7.7 13.734 7.72101 13.711 7.74001C13.593 7.83201 13.461 7.90401 13.314 7.95401C13.168 8.00501 13.012 8.03001 12.845 8.03001ZM13.367 6.39801C13.327 6.25701 13.259 6.14801 13.162 6.07301C13.065 5.99701 12.947 5.95901 12.807 5.95901C12.67 5.95901 12.552 5.99801 12.451 6.07501C12.351 6.15201 12.28 6.25901 12.239 6.39801H13.367Z" fill="white"/>
<path d="M15.401 8.03001C15.199 8.03001 15.013 7.996 14.842 7.929C14.672 7.861 14.513 7.76201 14.365 7.63101C14.342 7.61201 14.331 7.591 14.331 7.569C14.331 7.55 14.338 7.531 14.354 7.511L14.643 7.15001C14.663 7.12601 14.683 7.11301 14.705 7.11301C14.72 7.11301 14.739 7.12101 14.762 7.13701C14.866 7.21501 14.969 7.276 15.071 7.319C15.173 7.361 15.276 7.38301 15.38 7.38301C15.451 7.38301 15.508 7.369 15.551 7.341C15.594 7.313 15.615 7.274 15.615 7.222C15.615 7.188 15.602 7.15701 15.577 7.12801C15.553 7.10001 15.509 7.07101 15.448 7.04201C15.387 7.01301 15.3 6.979 15.188 6.94C14.972 6.868 14.795 6.76901 14.655 6.64301C14.516 6.51801 14.446 6.34601 14.446 6.12601C14.446 5.98701 14.481 5.85701 14.55 5.73701C14.619 5.61801 14.724 5.52101 14.866 5.44801C15.008 5.37401 15.182 5.33801 15.388 5.33801C15.531 5.33801 15.677 5.36601 15.828 5.42201C15.978 5.47801 16.111 5.562 16.226 5.673C16.246 5.693 16.256 5.713 16.256 5.733C16.256 5.75 16.246 5.77001 16.226 5.79301L15.888 6.14101C15.87 6.16101 15.85 6.17101 15.829 6.17101C15.81 6.17101 15.79 6.162 15.769 6.145C15.71 6.098 15.646 6.06001 15.575 6.02901C15.505 5.99801 15.435 5.983 15.365 5.983C15.292 5.983 15.237 5.997 15.199 6.024C15.162 6.051 15.143 6.08801 15.143 6.13501C15.143 6.16701 15.157 6.19701 15.184 6.22301C15.212 6.25001 15.257 6.276 15.318 6.302C15.379 6.329 15.465 6.36 15.574 6.395C15.809 6.471 15.991 6.57201 16.119 6.69901C16.247 6.82601 16.312 6.997 16.312 7.214C16.312 7.355 16.276 7.48801 16.204 7.61201C16.132 7.73701 16.027 7.83801 15.889 7.91501C15.752 7.99201 15.589 8.03001 15.401 8.03001Z" fill="white"/>
<path d="M17.899 8.03001C17.646 8.03001 17.417 7.97001 17.214 7.85001C17.011 7.72901 16.853 7.56601 16.738 7.36101C16.623 7.15601 16.566 6.932 16.566 6.688C16.566 6.442 16.623 6.21601 16.737 6.01001C16.851 5.80401 17.01 5.64001 17.213 5.51901C17.417 5.39801 17.647 5.33801 17.904 5.33801C18.072 5.33801 18.229 5.363 18.377 5.412C18.524 5.462 18.656 5.53301 18.773 5.62401C18.797 5.64401 18.81 5.665 18.81 5.688C18.81 5.705 18.803 5.724 18.79 5.744L18.519 6.13C18.5 6.158 18.479 6.17101 18.455 6.17101C18.439 6.17101 18.421 6.16401 18.399 6.15001C18.327 6.10001 18.254 6.06201 18.181 6.03601C18.109 6.01101 18.025 5.998 17.931 5.998C17.816 5.998 17.709 6.02801 17.611 6.08801C17.512 6.14801 17.434 6.23001 17.376 6.33501C17.317 6.43901 17.288 6.557 17.288 6.688C17.288 6.816 17.318 6.93201 17.377 7.03601C17.436 7.14001 17.515 7.22201 17.614 7.28101C17.713 7.34001 17.819 7.37001 17.933 7.37001C18.026 7.37001 18.109 7.357 18.182 7.332C18.256 7.308 18.328 7.27 18.399 7.22C18.421 7.206 18.439 7.19901 18.455 7.19901C18.479 7.19901 18.5 7.21201 18.519 7.23901L18.79 7.62601C18.805 7.64601 18.812 7.66501 18.812 7.68401C18.812 7.70301 18.803 7.72 18.786 7.735C18.668 7.829 18.534 7.902 18.384 7.953C18.235 8.005 18.073 8.03001 17.899 8.03001Z" fill="white"/>
<path d="M20.63 5.33801C20.805 5.33801 20.979 5.38801 21.15 5.48901C21.179 5.50801 21.194 5.53101 21.194 5.55801C21.194 5.57301 21.19 5.59001 21.182 5.60701L20.936 6.06801C20.919 6.10001 20.897 6.11501 20.87 6.11501C20.853 6.11501 20.836 6.11001 20.82 6.10101C20.718 6.04401 20.62 6.01501 20.526 6.01501C20.436 6.01501 20.35 6.04101 20.268 6.09201C20.186 6.14301 20.12 6.21901 20.068 6.32001C20.017 6.42001 19.991 6.54101 19.991 6.68201V7.88101C19.991 7.93801 19.963 7.966 19.906 7.966H19.35C19.293 7.966 19.265 7.93801 19.265 7.88101V5.466C19.265 5.409 19.293 5.38 19.35 5.38H19.775C19.823 5.38 19.855 5.40201 19.874 5.44701L19.978 5.69701C20.045 5.58601 20.135 5.49801 20.248 5.43401C20.36 5.37001 20.488 5.33801 20.63 5.33801Z" fill="white"/>
<path d="M21.622 5.10303C21.565 5.10303 21.536 5.07403 21.536 5.01703V4.51503C21.536 4.45803 21.565 4.42902 21.622 4.42902H22.188C22.245 4.42902 22.274 4.45803 22.274 4.51503V5.01703C22.274 5.07403 22.245 5.10303 22.188 5.10303H21.622ZM22.267 7.88103C22.267 7.93803 22.239 7.96602 22.182 7.96602H21.626C21.569 7.96602 21.541 7.93803 21.541 7.88103V5.46602C21.541 5.40902 21.569 5.38002 21.626 5.38002H22.182C22.239 5.38002 22.267 5.40902 22.267 5.46602V7.88103Z" fill="white"/>
<path d="M24.205 5.33801C24.448 5.33801 24.671 5.39701 24.876 5.51701C25.081 5.63701 25.244 5.79901 25.365 6.00301C25.485 6.20801 25.545 6.432 25.545 6.675C25.545 6.92 25.485 7.14601 25.366 7.35201C25.246 7.55801 25.084 7.721 24.878 7.841C24.673 7.961 24.449 8.022 24.205 8.022C23.936 8.022 23.712 7.938 23.534 7.772L23.481 7.90001C23.462 7.94401 23.43 7.966 23.383 7.966H22.957C22.9 7.966 22.872 7.93801 22.872 7.88101V4.707C22.872 4.65 22.9 4.62201 22.957 4.62201H23.513C23.57 4.62201 23.598 4.65 23.598 4.707V5.53201C23.765 5.40201 23.967 5.33801 24.205 5.33801ZM24.193 7.32701C24.312 7.32701 24.419 7.30001 24.514 7.24501C24.609 7.19001 24.683 7.11401 24.737 7.01701C24.792 6.92001 24.819 6.81 24.819 6.686C24.819 6.562 24.791 6.45001 24.736 6.35101C24.682 6.25101 24.606 6.173 24.51 6.117C24.414 6.06 24.306 6.03201 24.188 6.03201C24.07 6.03201 23.962 6.06101 23.866 6.11801C23.769 6.17501 23.692 6.25301 23.637 6.35201C23.581 6.45101 23.554 6.562 23.554 6.686C23.554 6.809 23.582 6.91901 23.638 7.01601C23.694 7.11401 23.771 7.19001 23.869 7.24501C23.966 7.30001 24.074 7.32701 24.193 7.32701Z" fill="white"/>
<path d="M27.148 8.03001C26.89 8.03001 26.659 7.97001 26.453 7.84901C26.248 7.72701 26.088 7.56401 25.974 7.35901C25.859 7.15401 25.802 6.93 25.802 6.688C25.802 6.443 25.856 6.21801 25.965 6.01201C26.074 5.80601 26.226 5.642 26.421 5.52C26.617 5.399 26.838 5.33801 27.086 5.33801C27.354 5.33801 27.586 5.395 27.783 5.511C27.979 5.626 28.129 5.78601 28.232 5.98901C28.336 6.19301 28.387 6.42501 28.387 6.68401C28.387 6.74101 28.384 6.79701 28.379 6.85301C28.373 6.90501 28.343 6.93201 28.289 6.93201H26.547C26.594 7.07401 26.675 7.18501 26.789 7.26501C26.903 7.34501 27.033 7.38501 27.178 7.38501C27.27 7.38501 27.354 7.372 27.429 7.345C27.504 7.319 27.577 7.281 27.648 7.231C27.666 7.217 27.685 7.21001 27.703 7.21001C27.726 7.21001 27.747 7.222 27.765 7.248L28.028 7.62201C28.041 7.64101 28.048 7.658 28.048 7.675C28.048 7.7 28.036 7.72101 28.013 7.74001C27.895 7.83201 27.763 7.90401 27.617 7.95401C27.471 8.00501 27.315 8.03001 27.148 8.03001ZM27.669 6.39801C27.629 6.25701 27.561 6.14801 27.464 6.07301C27.367 5.99701 27.249 5.95901 27.109 5.95901C26.973 5.95901 26.854 5.99801 26.754 6.07501C26.653 6.15201 26.582 6.25901 26.541 6.39801H27.669Z" fill="white"/>
<path d="M29.456 7.88503C29.449 7.93903 29.419 7.96602 29.366 7.96602H28.7609C28.7329 7.96602 28.711 7.95802 28.697 7.94302C28.683 7.92702 28.677 7.90502 28.68 7.87602L29.045 5.04303C29.048 5.01703 29.058 4.99802 29.074 4.98402C29.091 4.97002 29.112 4.96402 29.137 4.96402H29.845C29.895 4.96402 29.926 4.98803 29.939 5.03603L30.456 6.90202L30.971 5.03603C30.984 4.98803 31.015 4.96402 31.065 4.96402H31.7739C31.7999 4.96402 31.821 4.97002 31.837 4.98402C31.854 4.99802 31.863 5.01703 31.866 5.04303L32.234 7.87802C32.237 7.90702 32.231 7.92902 32.217 7.94502C32.202 7.96002 32.181 7.96802 32.153 7.96802H31.546C31.493 7.96802 31.463 7.94102 31.456 7.88702L31.276 6.19902L30.815 7.89302C30.802 7.94202 30.771 7.96602 30.721 7.96602H30.199C30.15 7.96602 30.118 7.94202 30.105 7.89302L29.644 6.19902L29.456 7.88503Z" fill="white"/>
<path d="M33.873 8.03001C33.615 8.03001 33.383 7.97001 33.178 7.84901C32.973 7.72701 32.813 7.56401 32.699 7.35901C32.584 7.15401 32.527 6.93 32.527 6.688C32.527 6.443 32.581 6.21801 32.69 6.01201C32.799 5.80601 32.951 5.642 33.146 5.52C33.341 5.399 33.563 5.33801 33.811 5.33801C34.079 5.33801 34.311 5.395 34.507 5.511C34.704 5.626 34.854 5.78601 34.957 5.98901C35.061 6.19301 35.112 6.42501 35.112 6.68401C35.112 6.74101 35.109 6.79701 35.104 6.85301C35.098 6.90501 35.068 6.93201 35.014 6.93201H33.272C33.319 7.07401 33.4 7.18501 33.514 7.26501C33.628 7.34501 33.757 7.38501 33.903 7.38501C33.995 7.38501 34.079 7.372 34.154 7.345C34.229 7.319 34.302 7.281 34.373 7.231C34.391 7.217 34.41 7.21001 34.428 7.21001C34.451 7.21001 34.472 7.222 34.49 7.248L34.753 7.62201C34.766 7.64101 34.772 7.658 34.772 7.675C34.772 7.7 34.761 7.72101 34.738 7.74001C34.62 7.83201 34.488 7.90401 34.342 7.95401C34.196 8.00501 34.039 8.03001 33.873 8.03001ZM34.394 6.39801C34.354 6.25701 34.286 6.14801 34.189 6.07301C34.092 5.99701 33.974 5.95901 33.834 5.95901C33.698 5.95901 33.579 5.99801 33.479 6.07501C33.378 6.15201 33.307 6.25901 33.266 6.39801H34.394Z" fill="white"/>
</g>
</g>
<defs>
<linearGradient id="paint0_linear_1366_267" x1="2.77" y1="11.494" x2="20.9332" y2="6.49929" gradientUnits="userSpaceOnUse">
<stop stop-color="#823D87"/>
<stop offset="0.407196" stop-color="#B154B8"/>
<stop offset="1" stop-color="#E46CED"/>
</linearGradient>
<clipPath id="clip0_1366_267">
<rect width="43.6213" height="12.459" fill="white"/>
</clipPath>
</defs>
</svg>
